<?xml version="1.0" standalone="no"?><!DOCTYPE svg PUBLIC "-//W3C//DTD SVG 1.1//EN" "http://www.w3.org/Graphics/SVG/1.1/DTD/svg11.dtd"><svg t="1552552186055" class="icon" style="" viewBox="0 0 1024 1024" version="1.1" xmlns="http://www.w3.org/2000/svg" p-id="1231" xmlns:xlink="http://www.w3.org/1999/xlink" width="200" height="200"><defs><style type="text/css"></style></defs><path d="M347.850941 351.71341m-57.390082 0a56.083 56.083 0 1 0 114.780163 0 56.083 56.083 0 1 0-114.780163 0Z" p-id="1232" fill="#999999"></path><path d="M457.082738 851.949482c-103.445 0-204.647937-40.632419-279.524275-115.514897C103.03312 661.929708 61.987285 562.850132 61.987285 457.463919c0-105.392352 41.045835-204.480114 115.571179-278.999318C252.083807 103.939257 351.157243 62.893422 456.549595 62.893422s204.466812 41.045835 278.992155 115.571179c74.526367 74.519204 115.578342 173.605943 115.578342 278.999318 0 105.393375-41.051975 204.472951-115.578342 278.991132-16.813944 16.799618-44.051285 16.806781-60.865229-0.00614-16.813944-16.806781-16.813944-44.059472 0-60.872393 58.258868-58.258868 90.358961-135.720078 90.358961-218.1126 0-82.399685-32.100092-159.860894-90.358961-218.134089-120.272247-120.272247-315.981604-120.272247-436.253852 0-58.266032 58.273195-90.351797 135.734404-90.351797 218.134089 0 82.392522 32.085766 159.847591 90.351797 218.098273 78.098729 78.098729 192.878892 108.566648 299.504328 79.493495 22.908756-6.227842 46.601364 7.265474 52.849672 30.215162 6.248308 22.936385-7.271614 46.594201-30.209022 52.843532C526.425036 847.417259 491.620345 851.949482 457.082738 851.949482z" p-id="1233" fill="#999999"></path><path d="M918.165068 962.100208c-11.013845 0-22.025643-4.203742-30.433126-12.603039L686.978708 748.757239c-16.813944-16.813944-16.813944-44.065612 0-60.871369 16.813944-16.813944 44.051285-16.806781 60.865229-0.007163l200.753233 200.738907c16.813944 16.813944 16.813944 44.065612 0 60.871369C940.189687 957.895443 929.177889 962.100208 918.165068 962.100208z" p-id="1234" fill="#999999"></path></svg>